<svg version="1.1" viewBox="0.0 0.0 515.3307086614174 100.0" fill="none" stroke="none" stroke-linecap="square" stroke-miterlimit="10" xmlns:xlink="http://www.w3.org/1999/xlink" xmlns="http://www.w3.org/2000/svg"><clipPath id="p.0"><path d="m0 0l515.3307 0l0 100.0l-515.3307 0l0 -100.0z" clip-rule="nonzero"/></clipPath><g clip-path="url(#p.0)"><path fill="#000000" fill-opacity="0.0" d="m0 0l515.3307 0l0 100.0l-515.3307 0z" fill-rule="evenodd"/><path fill="#000000" fill-opacity="0.0" d="m0 0l531.1811 0l0 100.18898l-531.1811 0z" fill-rule="evenodd"/><path fill="#000000" d="m13.21875 73.0l0 -48.484375l10.078125 0l0 18.234375l0.3125 0q0.65625 -1.46875 1.921875 -2.984375q1.265625 -1.53125 3.3125 -2.5625q2.046875 -1.03125 5.109375 -1.03125q3.96875 0 7.328125 2.078125q3.359375 2.0625 5.375 6.21875q2.015625 4.15625 2.015625 10.40625q0 6.078125 -1.953125 10.265625q-1.953125 4.171875 -5.3125 6.3125q-3.34375 2.140625 -7.484375 2.140625q-2.9375 0 -4.984375 -0.96875q-2.046875 -0.96875 -3.34375 -2.453125q-1.296875 -1.484375 -1.984375 -3.0l-0.453125 0l0 5.828125l-9.9375 0zm9.859375 -18.171875q0 3.234375 0.90625 5.65625q0.90625 2.40625 2.609375 3.75q1.703125 1.328125 4.140625 1.328125q2.453125 0 4.15625 -1.359375q1.703125 -1.359375 2.59375 -3.78125q0.890625 -2.421875 0.890625 -5.59375q0 -3.15625 -0.875 -5.546875q-0.875 -2.390625 -2.578125 -3.734375q-1.703125 -1.359375 -4.1875 -1.359375q-2.46875 0 -4.15625 1.3125q-1.6875 1.296875 -2.59375 3.6875q-0.90625 2.390625 -0.90625 5.640625zm55.61203 2.6875l0 -20.875l10.078125 0l0 36.359375l-9.6875 0l0 -6.609375l-0.375 0q-1.234375 3.203125 -4.09375 5.140625q-2.84375 1.9375 -6.9375 1.9375q-3.640625 0 -6.40625 -1.65625q-2.765625 -1.65625 -4.328125 -4.703125q-1.546875 -3.0625 -1.5625 -7.3125l0 -23.15625l10.078125 0l0 21.359375q0.015625 3.21875 1.71875 5.09375q1.71875 1.859375 4.578125 1.859375q1.8125 0 3.390625 -0.84375q1.59375 -0.84375 2.578125 -2.5q0.984375 -1.65625 0.96875 -4.09375zm48.38443 -10.5l-9.234375 0.5625q-0.234375 -1.1875 -1.015625 -2.140625q-0.78125 -0.953125 -2.046875 -1.53125q-1.265625 -0.59375 -3.03125 -0.59375q-2.34375 0 -3.953125 0.984375q-1.609375 0.984375 -1.609375 2.625q0 1.296875 1.046875 2.203125q1.046875 0.890625 3.578125 1.4375l6.578125 1.328125q5.296875 1.078125 7.90625 3.5q2.609375 2.40625 2.609375 6.34375q0 3.578125 -2.109375 6.28125q-2.09375 2.6875 -5.734375 4.1875q-3.625 1.5 -8.359375 1.5q-7.21875 0 -11.5 -3.015625q-4.265625 -3.015625 -4.984375 -8.21875l9.90625 -0.515625q0.453125 2.1875 2.171875 3.34375q1.734375 1.140625 4.4375 1.140625q2.65625 0 4.265625 -1.015625q1.625 -1.03125 1.65625 -2.671875q-0.03125 -1.375 -1.171875 -2.25q-1.125 -0.890625 -3.5 -1.375l-6.296875 -1.25q-5.328125 -1.0625 -7.921875 -3.6875q-2.578125 -2.640625 -2.578125 -6.703125q0 -3.5 1.90625 -6.03125q1.90625 -2.53125 5.359375 -3.90625q3.46875 -1.375 8.140625 -1.375q6.890625 0 10.84375 2.90625q3.96875 2.90625 4.640625 7.9375zm13.415375 39.625q-1.921875 0 -3.59375 -0.296875q-1.65625 -0.296875 -2.75 -0.75l2.265625 -7.53125q1.78125 0.546875 3.203125 0.59375q1.4375 0.046875 2.484375 -0.671875q1.0625 -0.703125 1.734375 -2.40625l0.578125 -1.53125l-13.03125 -37.40625l10.59375 0l7.53125 26.703125l0.375 0l7.609375 -26.703125l10.671875 0l-14.140625 40.28125q-1.015625 2.9375 -2.75 5.125q-1.734375 2.203125 -4.390625 3.390625q-2.65625 1.203125 -6.390625 1.203125z" fill-rule="nonzero"/><path fill="#ff0000" d="m183.40555 24.515625l0 48.484375l-10.078125 0l0 -48.484375l10.078125 0zm8.053421 48.484375l0 -36.359375l10.078125 0l0 36.359375l-10.078125 0zm5.0625 -41.046875q-2.25 0 -3.859375 -1.5q-1.59375 -1.5 -1.59375 -3.609375q0 -2.078125 1.59375 -3.578125q1.609375 -1.515625 3.859375 -1.515625q2.25 0 3.84375 1.515625q1.59375 1.5 1.59375 3.578125q0 2.109375 -1.59375 3.609375q-1.59375 1.5 -3.84375 1.5zm32.39717 4.6875l0 7.578125l-21.890625 0l0 -7.578125l21.890625 0zm-16.921875 -8.703125l10.078125 0l0 33.890625q0 1.390625 0.421875 2.171875q0.4375 0.765625 1.203125 1.078125q0.765625 0.296875 1.796875 0.296875q0.703125 0 1.40625 -0.125q0.71875 -0.125 1.09375 -0.203125l1.59375 7.5q-0.765625 0.234375 -2.140625 0.546875q-1.375 0.328125 -3.328125 0.40625q-3.65625 0.140625 -6.390625 -0.96875q-2.734375 -1.109375 -4.25 -3.453125q-1.5 -2.34375 -1.484375 -5.921875l0 -35.21875zm42.817337 8.703125l0 7.578125l-21.890625 0l0 -7.578125l21.890625 0zm-16.921875 -8.703125l10.078125 0l0 33.890625q0 1.390625 0.421875 2.171875q0.4375 0.765625 1.203125 1.078125q0.765625 0.296875 1.796875 0.296875q0.703125 0 1.40625 -0.125q0.71875 -0.125 1.09375 -0.203125l1.59375 7.5q-0.765625 0.234375 -2.140625 0.546875q-1.375 0.328125 -3.328125 0.40625q-3.65625 0.140625 -6.390625 -0.96875q-2.734375 -1.109375 -4.25 -3.453125q-1.5 -2.34375 -1.484375 -5.921875l0 -35.21875zm34.324905 -3.421875l0 48.484375l-10.078125 0l0 -48.484375l10.078125 0zm24.615936 49.1875q-5.609375 0 -9.65625 -2.28125q-4.03125 -2.28125 -6.203125 -6.484375q-2.171875 -4.203125 -2.171875 -9.953125q0 -5.609375 2.171875 -9.84375q2.171875 -4.234375 6.140625 -6.59375q3.96875 -2.375 9.3125 -2.375q3.59375 0 6.703125 1.15625q3.125 1.140625 5.453125 3.4375q2.328125 2.296875 3.625 5.765625q1.3125 3.46875 1.3125 8.09375l0 2.78125l-30.703125 0l0 -6.25l21.21875 0q0 -2.1875 -0.953125 -3.859375q-0.953125 -1.6875 -2.625 -2.640625q-1.65625 -0.953125 -3.859375 -0.953125q-2.296875 0 -4.0625 1.046875q-1.765625 1.046875 -2.765625 2.8125q-0.984375 1.765625 -1.015625 3.921875l0 5.9375q0 2.703125 1.0 4.671875q1.015625 1.953125 2.859375 3.03125q1.84375 1.0625 4.390625 1.0625q1.671875 0 3.0625 -0.46875q1.40625 -0.484375 2.390625 -1.421875q1.0 -0.953125 1.515625 -2.328125l9.328125 0.609375q-0.703125 3.375 -2.890625 5.875q-2.1875 2.484375 -5.640625 3.875q-3.4375 1.375 -7.9375 1.375z" fill-rule="nonzero"/><path fill="#000000" d="m320.1079 86.640625l0 -50.0l9.9375 0l0 6.109375l0.453125 0q0.65625 -1.46875 1.921875 -2.984375q1.265625 -1.53125 3.3125 -2.5625q2.046875 -1.03125 5.109375 -1.03125q3.96875 0 7.328125 2.078125q3.359375 2.0625 5.375 6.21875q2.015625 4.15625 2.015625 10.40625q0 6.078125 -1.953125 10.265625q-1.953125 4.171875 -5.3125 6.3125q-3.34375 2.140625 -7.484375 2.140625q-2.9375 0 -4.984375 -0.96875q-2.046875 -0.96875 -3.34375 -2.453125q-1.296875 -1.484375 -1.984375 -3.0l-0.3125 0l0 19.46875l-10.078125 0zm9.859375 -31.8125q0 3.234375 0.890625 5.65625q0.90625 2.40625 2.609375 3.75q1.71875 1.328125 4.15625 1.328125q2.453125 0 4.15625 -1.359375q1.703125 -1.359375 2.59375 -3.78125q0.890625 -2.421875 0.890625 -5.59375q0 -3.15625 -0.875 -5.546875q-0.875 -2.390625 -2.578125 -3.734375q-1.703125 -1.359375 -4.1875 -1.359375q-2.46875 0 -4.171875 1.3125q-1.6875 1.296875 -2.59375 3.6875q-0.890625 2.390625 -0.890625 5.640625zm32.29767 18.171875l0 -36.359375l10.078125 0l0 36.359375l-10.078125 0zm5.0625 -41.046875q-2.25 0 -3.859375 -1.5q-1.59375 -1.5 -1.59375 -3.609375q0 -2.078125 1.59375 -3.578125q1.609375 -1.515625 3.859375 -1.515625q2.25 0 3.84375 1.515625q1.59375 1.5 1.59375 3.578125q0 2.109375 -1.59375 3.609375q-1.59375 1.5 -3.84375 1.5zm21.490906 4.6875l6.671875 12.71875l6.84375 -12.71875l10.34375 0l-10.53125 18.1875l10.8125 18.171875l-10.296875 0l-7.171875 -12.5625l-7.046875 12.5625l-10.421875 0l10.796875 -18.171875l-10.421875 -18.1875l10.421875 0zm45.042633 37.0625q-5.609375 0 -9.65625 -2.28125q-4.03125 -2.28125 -6.203125 -6.484375q-2.171875 -4.203125 -2.171875 -9.953125q0 -5.609375 2.171875 -9.84375q2.171875 -4.234375 6.140625 -6.59375q3.96875 -2.375 9.3125 -2.375q3.59375 0 6.703125 1.15625q3.125 1.140625 5.453125 3.4375q2.328125 2.296875 3.625 5.765625q1.3125 3.46875 1.3125 8.09375l0 2.78125l-30.703125 0l0 -6.25l21.21875 0q0 -2.1875 -0.953125 -3.859375q-0.953125 -1.6875 -2.625 -2.640625q-1.65625 -0.953125 -3.859375 -0.953125q-2.296875 0 -4.0625 1.046875q-1.765625 1.046875 -2.765625 2.8125q-0.984375 1.765625 -1.015625 3.921875l0 5.9375q0 2.703125 1.0 4.671875q1.015625 1.953125 2.859375 3.03125q1.84375 1.0625 4.390625 1.0625q1.671875 0 3.0625 -0.46875q1.40625 -0.484375 2.390625 -1.421875q1.0 -0.953125 1.515625 -2.328125l9.328125 0.609375q-0.703125 3.375 -2.890625 5.875q-2.1875 2.484375 -5.640625 3.875q-3.4375 1.375 -7.9375 1.375zm33.352966 -49.1875l0 48.484375l-10.078125 0l0 -48.484375l10.078125 0zm38.303436 22.5l-9.234375 0.5625q-0.234375 -1.1875 -1.015625 -2.140625q-0.78125 -0.953125 -2.046875 -1.53125q-1.265625 -0.59375 -3.03125 -0.59375q-2.34375 0 -3.953125 0.984375q-1.609375 0.984375 -1.609375 2.625q0 1.296875 1.046875 2.203125q1.046875 0.890625 3.578125 1.4375l6.578125 1.328125q5.296875 1.078125 7.90625 3.5q2.609375 2.40625 2.609375 6.34375q0 3.578125 -2.109375 6.28125q-2.09375 2.6875 -5.734375 4.1875q-3.625 1.5 -8.359375 1.5q-7.21875 0 -11.5 -3.015625q-4.265625 -3.015625 -4.984375 -8.21875l9.90625 -0.515625q0.453125 2.1875 2.171875 3.34375q1.734375 1.140625 4.4375 1.140625q2.65625 0 4.265625 -1.015625q1.625 -1.03125 1.65625 -2.671875q-0.03125 -1.375 -1.171875 -2.25q-1.125 -0.890625 -3.5 -1.375l-6.296875 -1.25q-5.328125 -1.0625 -7.921875 -3.6875q-2.578125 -2.640625 -2.578125 -6.703125q0 -3.5 1.90625 -6.03125q1.90625 -2.53125 5.359375 -3.90625q3.46875 -1.375 8.140625 -1.375q6.890625 0 10.84375 2.90625q3.96875 2.90625 4.640625 7.9375z" fill-rule="nonzero"/></g></svg>