<svg version="1.1" id="Layer_1" xmlns:ooo="http://xml.openoffice.org/svg/export" xmlns:smil="http://www.w3.org/2001/SMIL20/" xmlns:anim="urn:oasis:names:tc:opendocument:xmlns:animation:1.0" xmlns:presentation="http://sun.com/xmlns/staroffice/presentation" xmlns="http://www.w3.org/2000/svg" xmlns:xlink="http://www.w3.org/1999/xlink" x="0px" y="0px" viewBox="100 0 549 69.8" style="enable-background:new 100 0 549 69.8;" xml:space="preserve">
<style type="text/css">
	.st0{fill:#FFFFFF;}
</style>
<g>
	<g>
		<g>
			<polygon class="st0" points="489.4,18.9 469.5,53.4 486.6,53.4 498,33.7 			"></polygon>
			<polygon class="st0" points="519.4,3.2 509.8,19.7 490.4,53.4 529.4,53.4 548.3,53.4 			"></polygon>
		</g>
	</g>
	<g>
		<g>
			<path class="st0" d="M450.1,50.1c0-2.1,1.6-3.7,3.7-3.7c2.2,0,3.7,1.6,3.7,3.7s-1.6,3.7-3.7,3.7S450.1,52.2,450.1,50.1z
				 M457,50.1c0-1.8-1.3-3.1-3.1-3.1c-1.8,0-3.1,1.3-3.1,3.1c0,1.8,1.3,3.1,3.1,3.1C455.7,53.2,457,51.9,457,50.1z M453.9,50.6h-0.7
				v1.5h-0.8v-4h1.5c0.8,0,1.5,0.5,1.5,1.3c0,0.6-0.4,1-0.9,1.1l1,1.5h-0.8L453.9,50.6z M453.9,50c0.5,0,0.9-0.2,0.9-0.7
				c0-0.5-0.4-0.7-0.9-0.7h-0.7v1.3L453.9,50L453.9,50z"></path>
		</g>
		<path class="st0" d="M146.2,24.7h7.5l3.6,10.9c1,2.8,1.8,5.6,2.7,8.6h0.2c0.9-2.7,2-6,2.9-8.6l3.8-10.9h5.1l3.9,10.9
			c1,2.9,2.1,5.8,2.9,8.6h0.2c0.8-2.8,1.8-5.7,2.7-8.6l3.6-10.9h7.2l-10,28.7h-6.9l-3.5-10c-1-2.7-1.8-5.4-2.7-8h-0.2
			c-0.8,2.6-1.7,5.2-2.7,8l-3.5,10H156L146.2,24.7z"></path>
		<path class="st0" d="M199.8,41c0.9,4.8,4.7,7.2,9.5,7.2c3.6,0,6.9-1.3,9.8-3.3v6.4c-2.7,1.7-6.8,2.7-10.5,2.7c-9.2,0-16-6-16-14.9
			c0-9.1,6.8-15,14.6-15c7.1,0,13.4,4.9,13.4,14c0,1-0.1,2.1-0.2,2.9C220.4,41,199.8,41,199.8,41z M213.9,36.1
			c-0.5-4.4-3.7-6.3-6.9-6.3c-3.2,0-6.6,2-7.4,6.3H213.9z"></path>
		<path class="st0" d="M224.9,8.9h7v17.3l0.2,0.1c1.8-1.1,4.5-2.1,7.6-2.1c7.5,0,13.7,5.7,13.7,14.6c0,8.9-6.5,15.4-15.3,15.4
			c-2.7,0-5-0.7-7.2-1.5l-6,1L224.9,8.9L224.9,8.9z M237.9,48.1c5.3,0,8.5-4.1,8.5-9.2c0-5-3.1-8.8-8.2-8.8c-2.4,0-4.6,0.9-6.2,2.1
			v14.5C233.5,47.5,235.9,48.1,237.9,48.1z"></path>
		<path class="st0" d="M257.8,45c3.6,2.2,8,3.2,11.1,3.2c3.2,0,5.2-1,5.2-3.1c0-2.9-3.7-2.7-8.1-3.7c-5.5-1.1-9.2-3.1-9.2-8.3
			c0.1-6,5.2-9.2,12.1-9.2c3.4,0,7.6,0.8,10.6,2.3v6.4c-3.5-2-7.7-2.9-10.6-2.9c-3,0-5,0.9-5,2.9c0,2.7,3.6,2.7,7.9,3.5
			c5.5,1.1,9.4,2.9,9.4,8.4c0,6.5-5.7,9.5-12.5,9.5c-3.5,0-7.8-0.8-11-2.4L257.8,45L257.8,45z"></path>
		<path class="st0" d="M304.5,50.2c-2.4,2.2-5.5,3.8-9.3,3.8c-3.1,0-5.9-1.1-7.6-3c-1.8-1.9-2.6-4.6-2.6-8.7V24.7h7v16.5
			c0,2.6,0.5,4.1,1.2,5c1,1.2,2.4,1.5,3.8,1.5c2.8,0,5.5-1.5,7.5-3.7V24.7h7v28.6h-6.9L304.5,50.2L304.5,50.2z"></path>
		<path class="st0" d="M355,36.6c0-2.4-0.5-3.8-1.2-4.8c-1-1-2.1-1.5-3.7-1.5c-2.7,0-5.4,1.5-7.2,3.4c0.1,0.5,0.1,1.1,0.1,1.8v17.9
			h-7V36.6c0-2.5-0.3-3.8-1.1-4.8c-1-1.1-2.4-1.5-3.7-1.5c-2.7,0-5.4,1.6-7.2,3.4v19.6h-7V24.7h6.9v3l0.2,0.1
			c2.4-2.1,5.5-3.7,9.2-3.7c3.4,0,6.9,1.3,8.6,4.5c3.2-2.9,6.8-4.5,10.5-4.5c3.1,0,5.7,1,7.5,2.9s2.5,4.4,2.5,8.5v17.9H355V36.6z"></path>
		<path class="st0" d="M404.2,36.6c0-2.4-0.5-3.8-1.2-4.8c-1-1-2.1-1.5-3.7-1.5c-2.7,0-5.4,1.5-7.2,3.4c0.1,0.5,0.1,1.1,0.1,1.8
			v17.9h-7V36.6c0-2.5-0.3-3.8-1.1-4.8c-1-1.1-2.4-1.5-3.7-1.5c-2.7,0-5.4,1.6-7.2,3.4v19.6h-7V24.7h6.9v3l0.2,0.1
			c2.4-2.1,5.5-3.7,9.2-3.7c3.4,0,6.9,1.3,8.6,4.5c3.2-2.9,6.8-4.5,10.5-4.5c3.1,0,5.7,1,7.5,2.9s2.5,4.4,2.5,8.5v17.9h-7
			L404.2,36.6L404.2,36.6z"></path>
		<path class="st0" d="M416.2,24.7h7v28.6h-7V24.7z"></path>
		<path class="st0" d="M446.8,52.7c-1.2,0.8-3.6,1.3-5.8,1.3c-2.5,0-5.2-0.8-6.9-2.8c-1.5-1.5-2.4-4-2.4-8.2V30.7h-5v-6h5v-7.6h7
			v7.6h8.1v6h-8.1V42c0,3.2,0.6,5.9,3.8,5.9c1.5,0,3.1-0.6,4.4-1.2L446.8,52.7L446.8,52.7z"></path>
	</g>
</g>
</svg>